<svg width="80" height="80" viewBox="0 0 80 80" fill="none" xmlns="http://www.w3.org/2000/svg">
<g filter="url(#filter0_di)">
<circle cx="40" cy="37" r="37" fill="#F5F5F5"/>
<ellipse cx="27.6662" cy="24.56" rx="6.3201" ry="6.23843" fill="#EA6712"/>
<path fill-rule="evenodd" clip-rule="evenodd" d="M35.8506 35.8766C35.8506 35.6535 35.6698 35.4727 35.4467 35.4727H19.8484C19.6253 35.4727 19.4445 35.6535 19.4445 35.8766L19.4445 58.5753C19.4445 58.5753 19.4445 58.5753 19.4445 58.5753H35.8506C35.8506 58.5753 35.8506 58.5753 35.8506 58.5753V35.8766ZM35.8506 58.5753L27.9984 44.8049C27.8435 44.5331 27.4516 44.5331 27.2966 44.8049L19.4445 58.5753H35.8506Z" fill="#EA6712"/>
<path fill-rule="evenodd" clip-rule="evenodd" d="M38.6036 16.4445C38.3806 16.4445 38.1997 16.6254 38.1997 16.8484L38.1997 32.2347C38.1997 32.4578 38.3806 32.6387 38.6036 32.6387L61.6047 32.6387C61.6047 32.6387 61.6048 32.6387 61.6048 32.6387L61.6048 16.4446C61.6048 16.4445 61.6048 16.4445 61.6047 16.4445C61.6047 16.4445 61.6047 16.4445 61.6047 16.4445L38.6036 16.4445ZM61.6047 16.4445L47.6662 24.1885C47.3892 24.3424 47.3892 24.7408 47.6662 24.8947L61.6047 32.6387L61.6047 16.4445Z" fill="#EA6712"/>
<path d="M45.7801 42.1498C45.7801 42.8204 45.6716 43.4039 45.4547 43.9003C45.2377 44.3934 44.9369 44.7895 44.5523 45.0886L45.7456 46.0255L44.8038 46.8588L43.2752 45.631C43.101 45.6606 42.9202 45.6754 42.7328 45.6754C42.1378 45.6754 41.6069 45.5324 41.1401 45.2464C40.6733 44.9604 40.3117 44.5528 40.0553 44.0235C39.7989 43.491 39.6691 42.8796 39.6658 42.1893V41.8342C39.6658 41.1275 39.7923 40.5062 40.0455 39.9703C40.3019 39.4312 40.6618 39.0187 41.1253 38.7327C41.5921 38.4434 42.1247 38.2988 42.7229 38.2988C43.3212 38.2988 43.8521 38.4434 44.3156 38.7327C44.7824 39.0187 45.1424 39.4312 45.3955 39.9703C45.6519 40.5062 45.7801 41.1258 45.7801 41.8293V42.1498ZM44.2811 41.8244C44.2811 41.0716 44.1463 40.4996 43.8768 40.1084C43.6072 39.7172 43.2226 39.5216 42.7229 39.5216C42.2266 39.5216 41.8436 39.7156 41.574 40.1035C41.3045 40.4881 41.1681 41.0535 41.1648 41.7997V42.1498C41.1648 42.8829 41.2996 43.4516 41.5691 43.8559C41.8387 44.2602 42.2266 44.4624 42.7328 44.4624C43.2292 44.4624 43.6105 44.2684 43.8768 43.8806C44.143 43.4894 44.2778 42.9207 44.2811 42.1745V41.8244ZM52.2988 38.3974V43.1261C52.2988 43.9118 52.0522 44.5331 51.5591 44.99C51.0693 45.4469 50.3987 45.6754 49.5473 45.6754C48.7091 45.6754 48.0434 45.4535 47.5503 45.0097C47.0572 44.5659 46.8057 43.9562 46.7959 43.1804V38.3974H48.2751V43.136C48.2751 43.6061 48.3869 43.9496 48.6104 44.1665C48.8373 44.3802 49.1496 44.4871 49.5473 44.4871C50.379 44.4871 50.8014 44.0498 50.8146 43.1754V38.3974H52.2988ZM57.4565 44.0975H54.8628L54.3697 45.5768H52.7968L55.4693 38.3974H56.8401L59.5275 45.5768H57.9545L57.4565 44.0975ZM55.2622 42.8993H57.0571L56.1547 40.212L55.2622 42.8993ZM40.0504 57.5768V50.3974H42.2594C42.8906 50.3974 43.4544 50.5404 43.9507 50.8264C44.4504 51.1091 44.8399 51.5134 45.1194 52.0394C45.3988 52.5621 45.5385 53.157 45.5385 53.8244V54.1547C45.5385 54.822 45.4004 55.4154 45.1243 55.9348C44.8515 56.4542 44.4652 56.8569 43.9655 57.1429C43.4659 57.4289 42.9021 57.5735 42.2742 57.5768H40.0504ZM41.5297 51.5956V56.3884H42.2446C42.8232 56.3884 43.2653 56.1994 43.5711 55.8214C43.8768 55.4433 44.0329 54.9026 44.0395 54.1991V53.8194C44.0395 53.0897 43.8883 52.5374 43.5859 52.1626C43.2834 51.7846 42.8413 51.5956 42.2594 51.5956H41.5297ZM49.2761 54.9486H48.0976V57.5768H46.6184V50.3974H49.286C50.1341 50.3974 50.7883 50.5864 51.2485 50.9644C51.7087 51.3425 51.9388 51.8767 51.9388 52.567C51.9388 53.0568 51.832 53.4661 51.6183 53.7948C51.4079 54.1202 51.0874 54.3799 50.6568 54.5739L52.21 57.5077V57.5768H50.6223L49.2761 54.9486ZM48.0976 53.7504H49.2909C49.6624 53.7504 49.95 53.6567 50.1538 53.4693C50.3576 53.2787 50.4595 53.0173 50.4595 52.6853C50.4595 52.3467 50.3626 52.0805 50.1686 51.8865C49.978 51.6926 49.6837 51.5956 49.286 51.5956H48.0976V53.7504ZM58.9653 54.1498C58.9653 54.8566 58.8404 55.4762 58.5906 56.0088C58.3408 56.5413 57.9825 56.9522 57.5157 57.2415C57.0522 57.5308 56.5196 57.6754 55.918 57.6754C55.3231 57.6754 54.7922 57.5324 54.3254 57.2464C53.8586 56.9604 53.497 56.5528 53.2406 56.0235C52.9842 55.491 52.8543 54.8796 52.851 54.1893V53.8342C52.851 53.1275 52.9776 52.5062 53.2307 51.9703C53.4871 51.4312 53.8471 51.0187 54.3106 50.7327C54.7774 50.4434 55.3099 50.2988 55.9082 50.2988C56.5065 50.2988 57.0374 50.4434 57.5009 50.7327C57.9677 51.0187 58.3276 51.4312 58.5807 51.9703C58.8371 52.5062 58.9653 53.1258 58.9653 53.8293V54.1498ZM57.4664 53.8244C57.4664 53.0716 57.3316 52.4996 57.062 52.1084C56.7925 51.7172 56.4079 51.5216 55.9082 51.5216C55.4118 51.5216 55.0288 51.7156 54.7593 52.1035C54.4897 52.4881 54.3533 53.0535 54.35 53.7997V54.1498C54.35 54.8829 54.4848 55.4516 54.7544 55.8559C55.0239 56.2602 55.4118 56.4624 55.918 56.4624C56.4144 56.4624 56.7957 56.2684 57.062 55.8806C57.3283 55.4894 57.4631 54.9207 57.4664 54.1745V53.8244Z" fill="#EA6712"/>
</g>
<defs>
<filter id="filter0_di" x="0.259259" y="0" width="79.4815" height="79.4815" filterUnits="userSpaceOnUse" color-interpolation-filters="sRGB">
<feFlood flood-opacity="0" result="BackgroundImageFix"/>
<feColorMatrix in="SourceAlpha" type="matrix" values="0 0 0 0 0 0 0 0 0 0 0 0 0 0 0 0 0 0 127 0"/>
<feOffset dy="2.74074"/>
<feGaussianBlur stdDeviation="1.37037"/>
<feColorMatrix type="matrix" values="0 0 0 0 0 0 0 0 0 0 0 0 0 0 0 0 0 0 0.25 0"/>
<feBlend mode="normal" in2="BackgroundImageFix" result="effect1_dropShadow"/>
<feBlend mode="normal" in="SourceGraphic" in2="effect1_dropShadow" result="shape"/>
<feColorMatrix in="SourceAlpha" type="matrix" values="0 0 0 0 0 0 0 0 0 0 0 0 0 0 0 0 0 0 127 0" result="hardAlpha"/>
<feOffset dx="0.685185" dy="0.685185"/>
<feGaussianBlur stdDeviation="0.342593"/>
<feComposite in2="hardAlpha" operator="arithmetic" k2="-1" k3="1"/>
<feColorMatrix type="matrix" values="0 0 0 0 1 0 0 0 0 1 0 0 0 0 1 0 0 0 1 0"/>
<feBlend mode="lighten" in2="shape" result="effect2_innerShadow"/>
</filter>
</defs>
</svg>
